<svg xmlns="http://www.w3.org/2000/svg" width="512" height="512" viewBox="0 0 512 512"><rect width="512" height="512" rx="112" fill="#163C3B"/><path d="M116 142Q188 125 245 171V366Q185 323 116 345Z" fill="#F7EAD2"/><path d="M267 171Q324 125 396 142V345Q327 323 267 366Z" fill="#E9B66F"/><path d="M256 166V370" stroke="#163C3B" stroke-width="12" stroke-linecap="round"/><path d="M148 191Q188 188 216 208M148 228Q187 225 216 245M296 207Q331 187 365 191M296 244Q331 224 365 228" fill="none" stroke="#163C3B" stroke-width="11" stroke-linecap="round"/><path d="M303 350L350 386L346 338" fill="#E9B66F"/></svg>